{
    "asset" : {
        "generator" : "Khronos glTF Blender I/O v1.1.45",
        "version" : "2.0"
    },
    "scene" : 0,
    "scenes" : [
        {
            "name" : "Scene",
            "nodes" : [
                0
            ]
        }
    ],
    "nodes" : [
        {
            "mesh" : 0,
            "name" : "pine-2"
        }
    ],
    "materials" : [
        {
            "doubleSided" : true,
            "emissiveFactor" : [
                0,
                0,
                0
            ],
            "name" : "Leave",
            "pbrMetallicRoughness" : {
                "baseColorTexture" : {
                    "index" : 0,
                    "texCoord" : 0
                },
                "metallicFactor" : 0.95,
                "roughnessFactor" : 1.0
            }
        }
    ],
    "meshes" : [
        {
            "name" : "Mesh.001",
            "primitives" : [
                {
                    "attributes" : {
                        "POSITION" : 0,
                        "NORMAL" : 1,
                        "TANGENT" : 2,
                        "TEXCOORD_0" : 3,
                        "COLOR_0" : 4
                    },
                    "indices" : 5,
                    "material" : 0
                }
            ]
        }
    ],
    "textures" : [
        {
            "source" : 0
        }
    ],
    "images" : [
        {
            "mimeType" : "image/png",
            "name" : "pine-basecolor",
            "uri" : "pine-basecolor.png"
        }
    ],
    "accessors" : [
        {
            "bufferView" : 0,
            "componentType" : 5126,
            "count" : 1876,
            "max" : [
                1.2427177429199219,
                7.505092144012451,
                1.1755520105361938
            ],
            "min" : [
                -1.2021675109863281,
                -2.2348160655383253e-08,
                -1.1663284301757812
            ],
            "type" : "VEC3"
        },
        {
            "bufferView" : 1,
            "componentType" : 5126,
            "count" : 1876,
            "type" : "VEC3"
        },
        {
            "bufferView" : 2,
            "componentType" : 5126,
            "count" : 1876,
            "type" : "VEC4"
        },
        {
            "bufferView" : 3,
            "componentType" : 5126,
            "count" : 1876,
            "type" : "VEC2"
        },
        {
            "bufferView" : 4,
            "componentType" : 5126,
            "count" : 1876,
            "type" : "VEC4"
        },
        {
            "bufferView" : 5,
            "componentType" : 5123,
            "count" : 1884,
            "type" : "SCALAR"
        }
    ],
    "bufferViews" : [
        {
            "buffer" : 0,
            "byteLength" : 22512,
            "byteOffset" : 0
        },
        {
            "buffer" : 0,
            "byteLength" : 22512,
            "byteOffset" : 22512
        },
        {
            "buffer" : 0,
            "byteLength" : 30016,
            "byteOffset" : 45024
        },
        {
            "buffer" : 0,
            "byteLength" : 15008,
            "byteOffset" : 75040
        },
        {
            "buffer" : 0,
            "byteLength" : 30016,
            "byteOffset" : 90048
        },
        {
            "buffer" : 0,
            "byteLength" : 3768,
            "byteOffset" : 120064
        }
    ],
    "buffers" : [
        {
            "byteLength" : 123832,
            "uri" : "pine-2.bin"
        }
    ]
}
