{
    "asset" : {
        "generator" : "Khronos glTF Blender I/O v1.1.45",
        "version" : "2.0"
    },
    "scene" : 0,
    "scenes" : [
        {
            "name" : "Scene",
            "nodes" : [
                0
            ]
        }
    ],
    "nodes" : [
        {
            "mesh" : 0,
            "name" : "pine-1"
        }
    ],
    "materials" : [
        {
            "doubleSided" : true,
            "emissiveFactor" : [
                0,
                0,
                0
            ],
            "name" : "Leave",
            "pbrMetallicRoughness" : {
                "baseColorTexture" : {
                    "index" : 0,
                    "texCoord" : 0
                },
                "metallicFactor" : 0.95,
                "roughnessFactor" : 1.0
            }
        }
    ],
    "meshes" : [
        {
            "name" : "Mesh",
            "primitives" : [
                {
                    "attributes" : {
                        "POSITION" : 0,
                        "NORMAL" : 1,
                        "TANGENT" : 2,
                        "TEXCOORD_0" : 3,
                        "COLOR_0" : 4
                    },
                    "indices" : 5,
                    "material" : 0
                }
            ]
        }
    ],
    "textures" : [
        {
            "source" : 0
        }
    ],
    "images" : [
        {
            "mimeType" : "image/png",
            "name" : "pine-basecolor",
            "uri" : "pine-basecolor.png"
        }
    ],
    "accessors" : [
        {
            "bufferView" : 0,
            "componentType" : 5126,
            "count" : 1812,
            "max" : [
                1.5137100219726562,
                4.578049659729004,
                1.4901996850967407
            ],
            "min" : [
                -1.4791641235351562,
                -1.1855938453209092e-08,
                -1.5048048496246338
            ],
            "type" : "VEC3"
        },
        {
            "bufferView" : 1,
            "componentType" : 5126,
            "count" : 1812,
            "type" : "VEC3"
        },
        {
            "bufferView" : 2,
            "componentType" : 5126,
            "count" : 1812,
            "type" : "VEC4"
        },
        {
            "bufferView" : 3,
            "componentType" : 5126,
            "count" : 1812,
            "type" : "VEC2"
        },
        {
            "bufferView" : 4,
            "componentType" : 5126,
            "count" : 1812,
            "type" : "VEC4"
        },
        {
            "bufferView" : 5,
            "componentType" : 5123,
            "count" : 1812,
            "type" : "SCALAR"
        }
    ],
    "bufferViews" : [
        {
            "buffer" : 0,
            "byteLength" : 21744,
            "byteOffset" : 0
        },
        {
            "buffer" : 0,
            "byteLength" : 21744,
            "byteOffset" : 21744
        },
        {
            "buffer" : 0,
            "byteLength" : 28992,
            "byteOffset" : 43488
        },
        {
            "buffer" : 0,
            "byteLength" : 14496,
            "byteOffset" : 72480
        },
        {
            "buffer" : 0,
            "byteLength" : 28992,
            "byteOffset" : 86976
        },
        {
            "buffer" : 0,
            "byteLength" : 3624,
            "byteOffset" : 115968
        }
    ],
    "buffers" : [
        {
            "byteLength" : 119592,
            "uri" : "pine-1.bin"
        }
    ]
}
