{
    "asset" : {
        "generator" : "Khronos glTF Blender I/O v1.1.45",
        "version" : "2.0"
    },
    "scene" : 0,
    "scenes" : [
        {
            "name" : "Scene",
            "nodes" : [
                0
            ]
        }
    ],
    "nodes" : [
        {
            "mesh" : 0,
            "name" : "grass-2"
        }
    ],
    "materials" : [
        {
            "doubleSided" : true,
            "emissiveFactor" : [
                0,
                0,
                0
            ],
            "name" : "grass",
            "pbrMetallicRoughness" : {
                "baseColorTexture" : {
                    "index" : 0,
                    "texCoord" : 0
                },
                "metallicFactor" : 0,
                "roughnessFactor" : 0.5527864098548889
            }
        }
    ],
    "meshes" : [
        {
            "name" : "Mesh.001",
            "primitives" : [
                {
                    "attributes" : {
                        "POSITION" : 0,
                        "NORMAL" : 1,
                        "TANGENT" : 2,
                        "TEXCOORD_0" : 3,
                        "COLOR_0" : 4
                    },
                    "indices" : 5,
                    "material" : 0
                }
            ]
        }
    ],
    "textures" : [
        {
            "source" : 0
        }
    ],
    "images" : [
        {
            "mimeType" : "image/jpg",
            "name" : "grass-basecolor",
            "uri" : "grass-basecolor.jpg"
        }
    ],
    "accessors" : [
        {
            "bufferView" : 0,
            "componentType" : 5126,
            "count" : 966,
            "max" : [
                0.22511398792266846,
                0.5231695771217346,
                0.22815188765525818
            ],
            "min" : [
                -0.22511398792266846,
                -0.004343663342297077,
                -0.2281518280506134
            ],
            "type" : "VEC3"
        },
        {
            "bufferView" : 1,
            "componentType" : 5126,
            "count" : 966,
            "type" : "VEC3"
        },
        {
            "bufferView" : 2,
            "componentType" : 5126,
            "count" : 966,
            "type" : "VEC4"
        },
        {
            "bufferView" : 3,
            "componentType" : 5126,
            "count" : 966,
            "type" : "VEC2"
        },
        {
            "bufferView" : 4,
            "componentType" : 5126,
            "count" : 966,
            "type" : "VEC4"
        },
        {
            "bufferView" : 5,
            "componentType" : 5123,
            "count" : 966,
            "type" : "SCALAR"
        }
    ],
    "bufferViews" : [
        {
            "buffer" : 0,
            "byteLength" : 11592,
            "byteOffset" : 0
        },
        {
            "buffer" : 0,
            "byteLength" : 11592,
            "byteOffset" : 11592
        },
        {
            "buffer" : 0,
            "byteLength" : 15456,
            "byteOffset" : 23184
        },
        {
            "buffer" : 0,
            "byteLength" : 7728,
            "byteOffset" : 38640
        },
        {
            "buffer" : 0,
            "byteLength" : 15456,
            "byteOffset" : 46368
        },
        {
            "buffer" : 0,
            "byteLength" : 1932,
            "byteOffset" : 61824
        }
    ],
    "buffers" : [
        {
            "byteLength" : 63756,
            "uri" : "grass-2.bin"
        }
    ]
}
